HIERARCHY
ROOT Hips
{
	OFFSET 0.000000 0.000000 0.000000
	CHANNELS 6 Xposition Yposition Zposition Yrotation Xrotation Zrotation
	JOINT Chest
	{
		OFFSET 0.000000 -0.009281 11.569106
		CHANNELS 3 Yrotation Xrotation Zrotation
		JOINT Chest2
		{
			OFFSET -0.000000 0.016865 9.269641
			CHANNELS 3 Yrotation Xrotation Zrotation
			JOINT Chest3
			{
				OFFSET -0.000000 0.000001 8.374491
				CHANNELS 3 Yrotation Xrotation Zrotation
				JOINT Chest4
				{
					OFFSET -0.000000 0.000001 8.374493
					CHANNELS 3 Yrotation Xrotation Zrotation
					JOINT Neck
					{
						OFFSET -0.000000 0.000002 12.152554
						CHANNELS 3 Yrotation Xrotation Zrotation
						JOINT Head
						{
							OFFSET -0.000000 0.040101 7.802319
							CHANNELS 3 Yrotation Xrotation Zrotation
							End Site
							{
								OFFSET -0.000000 0.020947 14.853096
							}
						}
					}
					JOINT RightCollar
					{
						OFFSET 2.894404 0.000001 6.791374
						CHANNELS 3 Yrotation Xrotation Zrotation
						JOINT RightShoulder
						{
							OFFSET 13.574684 0.000001 0.000000
							CHANNELS 3 Yrotation Xrotation Zrotation
							JOINT RightElbow
							{
								OFFSET 23.923903 0.000002 0.000000
								CHANNELS 3 Yrotation Xrotation Zrotation
								JOINT RightWrist
								{
									OFFSET 19.846718 0.012767 0.000000
									CHANNELS 3 Yrotation Xrotation Zrotation
									End Site
									{
										OFFSET 14.973145 0.000001 0.000000
									}
								}
							}
						}
					}
					JOINT LeftCollar
					{
						OFFSET -2.894404 0.000001 6.791374
						CHANNELS 3 Yrotation Xrotation Zrotation
						JOINT LeftShoulder
						{
							OFFSET -13.574684 -0.000001 0.000000
							CHANNELS 3 Yrotation Xrotation Zrotation
							JOINT LeftElbow
							{
								OFFSET -23.923903 -0.000002 0.000000
								CHANNELS 3 Yrotation Xrotation Zrotation
								JOINT LeftWrist
								{
									OFFSET -19.846718 0.012763 0.000000
									CHANNELS 3 Yrotation Xrotation Zrotation
									End Site
									{
										OFFSET -14.973145 -0.000001 0.000000
									}
								}
							}
						}
					}
				}
			}
		}
	}
	JOINT RightHip
	{
		OFFSET 9.469263 0.004643 0.045487
		CHANNELS 3 Yrotation Xrotation Zrotation
		JOINT RightKnee
		{
			OFFSET 0.000000 0.002661 -40.478676
			CHANNELS 3 Yrotation Xrotation Zrotation
			JOINT RightAnkle
			{
				OFFSET 0.000000 0.049106 -35.224068
				CHANNELS 3 Yrotation Xrotation Zrotation
				JOINT RightToe
				{
					OFFSET -0.000001 12.539529 -6.151390
					CHANNELS 3 Yrotation Xrotation Zrotation
					End Site
					{
						OFFSET -0.000001 5.044994 -1.291870
					}
				}
			}
		}
	}
	JOINT LeftHip
	{
		OFFSET -9.469263 0.004641 0.045487
		CHANNELS 3 Yrotation Xrotation Zrotation
		JOINT LeftKnee
		{
			OFFSET 0.000000 0.002661 -40.478676
			CHANNELS 3 Yrotation Xrotation Zrotation
			JOINT LeftAnkle
			{
				OFFSET 0.000000 0.049106 -35.224068
				CHANNELS 3 Yrotation Xrotation Zrotation
				JOINT LeftToe
				{
					OFFSET -0.000001 12.539529 -6.151390
					CHANNELS 3 Yrotation Xrotation Zrotation
					End Site
					{
						OFFSET -0.000001 5.044994 -1.291870
					}
				}
			}
		}
	}
}
MOTION
Frames: 12
Frame Time: 0.016667
10.603702 2.895006 83.138916 -6.370492 -4.633388 -112.018558 -5.411827 -0.583039 2.073363 -2.405577 -0.279698 0.937369 -2.405577 -0.279697 0.937367 -1.803755 -0.213469 0.701932 5.325636 -19.487191 -15.487266 4.967772 -0.282619 -26.626613 7.596525 5.106686 -3.692511 69.850425 23.316516 59.499383 58.983082 22.147150 76.519320 -49.206916 47.538861 2.770176 -11.558649 -2.566841 -7.222345 -59.812930 30.398016 -9.373901 3.671894 -2.719827 -19.951425 70.106373 12.946770 -66.795056 2.969775 -9.198911 -0.522094 0.495520 -4.898700 2.193521 -0.986241 6.217980 -2.851353 -0.007918 -0.040074 0.004779 2.174569 -10.326259 -0.479453 -0.013281 -3.851971 5.115697 0.674463 6.937054 1.831360 -0.004929 0.002233 -0.008145 
10.618651 2.888802 83.137077 -6.326079 -4.611948 -112.014686 -5.381888 -0.589247 2.064301 -2.392761 -0.282724 0.932968 -2.392763 -0.282724 0.932971 -1.794142 -0.215700 0.698630 5.278206 -19.451991 -15.607197 4.841777 -0.237548 -26.862682 7.636643 5.170002 -3.628093 70.190528 23.838967 59.752933 58.966171 21.470876 76.235539 -46.565136 48.010868 3.657019 -11.566678 -2.450404 -7.126295 -59.775965 30.524956 -8.803718 3.708194 -2.657536 -19.739269 70.157552 12.910425 -66.788411 2.973018 -9.189432 -0.507310 0.486876 -4.842692 2.165904 -0.978269 6.207177 -2.850732 -0.007203 -0.043739 0.004657 2.175075 -10.304311 -0.482482 -0.026006 -3.816895 5.085390 0.691546 6.933068 1.879911 -0.006619 0.000463 -0.007488 
10.634128 2.883912 83.137054 -6.284200 -4.593241 -112.027643 -5.355329 -0.594845 2.059986 -2.381058 -0.285533 0.930345 -2.381058 -0.285534 0.930346 -1.785358 -0.217780 0.696656 5.229759 -19.417625 -15.711426 4.718570 -0.193032 -27.070422 7.651114 5.295964 -3.640284 70.589848 24.240903 59.986970 59.201505 20.872406 76.047176 -44.219266 48.433278 4.261145 -11.585140 -2.388893 -7.087452 -59.696045 30.787317 -8.247149 3.740285 -2.675501 -19.518992 70.200575 12.867800 -66.780303 2.971875 -9.181576 -0.485508 0.479720 -4.788442 2.153984 -0.967950 6.192686 -2.848431 -0.008223 -0.044214 0.004381 2.176415 -10.290801 -0.480741 -0.037391 -3.774555 5.084569 0.701732 6.922089 1.892547 -0.007639 0.002660 -0.007379 
10.651726 2.880007 83.137405 -6.244018 -4.574105 -112.026065 -5.331989 -0.601685 2.047322 -2.369998 -0.288446 0.923562 -2.369998 -0.288448 0.923562 -1.777064 -0.219921 0.691567 5.181375 -19.378312 -15.804554 4.597785 -0.138653 -27.258291 7.642952 5.348600 -3.660268 71.035593 24.635801 60.241176 59.634969 20.314548 75.944293 -41.832590 48.895968 4.784988 -11.599959 -2.313697 -7.015316 -59.572425 31.056839 -7.723227 3.736904 -2.736034 -19.233034 70.216401 12.812568 -66.765243 2.968904 -9.181819 -0.504140 0.473525 -4.724537 2.168441 -0.954901 6.176874 -2.839182 -0.011140 -0.044892 0.004779 2.172471 -10.279613 -0.493497 -0.040814 -3.728742 5.078401 0.713406 6.908488 1.896511 -0.010045 0.004873 -0.008532 
10.671049 2.877494 83.136635 -6.199901 -4.556136 -112.062367 -5.310589 -0.610495 2.051389 -2.360148 -0.292059 0.925746 -2.360150 -0.292058 0.925747 -1.769671 -0.222624 0.693189 5.137079 -19.329116 -15.894202 4.483612 -0.065338 -27.439213 7.664995 5.432592 -3.641696 71.398269 25.042740 60.382397 60.014632 19.828814 75.778613 -38.994493 49.166581 5.680179 -11.561471 -2.207351 -6.849994 -59.508085 31.230558 -7.260203 3.708346 -2.818296 -18.922831 70.228715 12.739487 -66.720136 2.963801 -9.181387 -0.522267 0.459779 -4.652768 2.213414 -0.936582 6.158512 -2.825887 -0.014432 -0.049375 0.005229 2.164513 -10.274599 -0.469745 -0.044226 -3.676243 5.077989 0.725059 6.895649 1.890258 -0.012848 0.007138 -0.009966 
10.691255 2.873811 83.134544 -6.157101 -4.533066 -112.083295 -5.287588 -0.623054 2.045572 -2.350634 -0.296894 0.923531 -2.350634 -0.296895 0.923529 -1.762527 -0.226227 0.691516 5.090628 -19.277774 -15.979605 4.366303 0.011702 -27.613341 7.705430 5.524116 -3.588148 71.637244 25.464847 60.453185 60.154261 19.449624 75.496745 -36.033025 49.342263 6.606504 -11.504991 -2.044828 -6.651815 -59.409334 31.307791 -6.753558 3.680255 -2.897865 -18.595030 70.242635 12.642591 -66.650352 2.959663 -9.187381 -0.529473 0.443408 -4.570552 2.237710 -0.920950 6.142027 -2.825433 -0.014400 -0.056995 0.006412 2.153005 -10.266113 -0.453177 -0.045523 -3.626885 5.064386 0.736484 6.885056 1.889808 -0.014937 0.007674 -0.010728 
10.709321 2.869999 83.132057 -6.114761 -4.506461 -112.086792 -5.258476 -0.631440 2.030286 -2.338367 -0.300444 0.916535 -2.338366 -0.300444 0.916538 -1.753326 -0.228845 0.686260 5.037549 -19.228972 -16.061738 4.238338 0.082936 -27.783552 7.738576 5.570202 -3.549670 71.773185 25.851573 60.539088 60.253497 19.229257 75.200192 -33.296674 49.433364 7.274376 -11.487699 -1.897399 -6.548306 -59.246393 31.406193 -6.212239 3.648774 -2.883047 -18.220438 70.270072 12.574269 -66.633113 2.954229 -9.191892 -0.521685 0.433190 -4.488583 2.223398 -0.910401 6.125746 -2.820597 -0.012032 -0.063155 0.007374 2.140952 -10.248164 -0.455367 -0.045937 -3.586959 5.048692 0.747377 6.876278 1.906119 -0.016582 0.007349 -0.011080 
10.725938 2.866758 83.130043 -6.068445 -4.481509 -112.102898 -5.227903 -0.638460 2.021259 -2.324920 -0.303388 0.912470 -2.324921 -0.303390 0.912473 -1.743240 -0.231018 0.683207 4.989244 -19.178999 -16.143210 4.118877 0.157021 -27.951277 7.758659 5.646320 -3.537501 71.834780 26.184147 60.593784 60.610771 19.219261 74.964823 -30.474948 49.480742 7.697283 -11.469331 -1.838199 -6.526265 -59.140135 31.564459 -5.768999 3.650580 -2.791088 -17.815430 70.303274 12.511043 -66.584236 2.948458 -9.189276 -0.507690 0.425384 -4.411186 2.205686 -0.902175 6.108055 -2.804118 -0.008685 -0.067415 0.007548 2.131111 -10.227939 -0.442451 -0.049885 -3.547648 5.018564 0.761807 6.868296 1.941833 -0.017805 0.006876 -0.011163 
10.743593 2.863601 83.129211 -6.023228 -4.464656 -112.146556 -5.194702 -0.646871 2.022856 -2.309852 -0.306860 0.914088 -2.309854 -0.306859 0.914090 -1.731931 -0.233604 0.684417 4.946704 -19.124728 -16.226540 4.008430 0.239624 -28.120987 7.766919 5.783230 -3.555250 71.900404 26.491556 60.610901 61.213166 19.316687 74.722256 -27.517659 49.515672 8.052674 -11.477902 -1.757644 -6.483650 -59.018449 31.757545 -5.372768 3.640303 -2.688693 -17.353298 70.333183 12.417497 -66.499582 2.944076 -9.193227 -0.473530 0.416252 -4.325327 2.196318 -0.889793 6.081476 -2.780169 -0.007534 -0.069603 0.006986 2.128416 -10.215339 -0.395299 -0.059395 -3.510215 4.976717 0.776633 6.863499 1.959485 -0.018189 0.007967 -0.010982 
10.761239 2.859234 83.129120 -5.978859 -4.448813 -112.192271 -5.158795 -0.657950 2.024216 -2.293708 -0.311666 0.915818 -2.293707 -0.311667 0.915819 -1.719812 -0.237192 0.685703 4.908166 -19.060510 -16.312995 3.902396 0.340634 -28.296007 7.745853 5.914793 -3.587053 71.998192 26.762633 60.632149 61.666704 19.448407 74.409215 -24.827543 49.395450 8.250711 -11.506265 -1.587334 -6.392657 -58.878901 31.931408 -4.968388 3.596626 -2.586075 -16.850201 70.326619 12.261407 -66.353526 2.945243 -9.199549 -0.444982 0.398448 -4.237858 2.188556 -0.872424 6.054682 -2.750997 -0.007779 -0.071154 0.006565 2.121640 -10.206072 -0.352512 -0.063271 -3.470189 4.942838 0.787343 6.855304 1.992672 -0.016637 0.011382 -0.010256 
10.779206 2.856009 83.128616 -5.936702 -4.427118 -112.235157 -5.130411 -0.674077 2.034038 -2.281394 -0.318801 0.921207 -2.281394 -0.318801 0.921204 -1.710566 -0.242544 0.689720 4.883883 -18.989529 -16.410865 3.817431 0.455255 -28.488021 7.746672 6.033588 -3.583679 72.059739 27.069956 60.620156 61.826661 19.593830 74.017647 -22.201013 49.148873 8.521324 -11.502573 -1.419186 -6.267188 -58.754421 32.069268 -4.610725 3.519202 -2.494267 -16.344274 70.347342 12.039050 -66.197859 2.942307 -9.205288 -0.425449 0.374188 -4.151121 2.209129 -0.853443 6.030323 -2.744485 -0.007739 -0.074318 0.006797 2.109300 -10.193702 -0.325050 -0.068306 -3.434245 4.920228 0.796251 6.846995 2.032465 -0.013883 0.015804 -0.011088 
10.795644 2.854994 83.127266 -5.890153 -4.399625 -112.260484 -5.104600 -0.689935 2.039273 -2.270412 -0.325940 0.923906 -2.270412 -0.325940 0.923904 -1.702316 -0.247893 0.691730 4.865351 -18.918878 -16.511537 3.741940 0.569856 -28.683475 7.783668 6.082301 -3.542757 72.048852 27.398669 60.627921 61.885735 19.834574 73.649691 -19.459614 48.809509 8.692650 -11.466398 -1.301100 -6.127278 -58.712484 32.154577 -4.333890 3.524396 -2.384848 -15.850417 70.397339 11.799056 -66.082046 2.935297 -9.203638 -0.429629 0.355364 -4.066297 2.227952 -0.837044 6.006931 -2.732724 -0.007085 -0.076740 0.007221 2.094671 -10.171212 -0.328682 -0.068691 -3.396254 4.911697 0.802221 6.834986 2.038193 -0.012162 0.018375 -0.012096 
